PathFileType	4	(X/Y/Z)	/Users/itak/Documents/Research/Walk-IL/dataset/trc/00150_00007.trc
DataRate	CameraRate	NumFrames	NumMarkers	Units	OrigDataRate	OrigDataStartFrame	OrigNumFrames
100.000000	100.000000	4	53	mm	100.000000	417	557
Frame#	Time	RPSI			LPSI			L3			STRN			T10			C7			CLAV			RBAK			LBAK			LSHO			LUPA			LAEL			LAOL			LWTS			LWPS			LFRA			LIFD			LHPS			LHTS			RSHO			RUPA			RAEL			RAOL			RWTS			RWPS			RFRA			RIFD			RHTS			RHPS			RBHD			LFHD			RFHD			LBHD			LHIP			RHIP			RASI			LASI			LKNE			LTHI			LANK			LTIP			LTOE			LMT1			LMT5			LHEE			RKNE			RTHI			RANK			RTIP			RTOE			RMT1			RMT5			RHEE			
		X1	Y1	Z1	X2	Y2	Z2	X3	Y3	Z3	X4	Y4	Z4	X5	Y5	Z5	X6	Y6	Z6	X7	Y7	Z7	X8	Y8	Z8	X9	Y9	Z9	X10	Y10	Z10	X11	Y11	Z11	X12	Y12	Z12	X13	Y13	Z13	X14	Y14	Z14	X15	Y15	Z15	X16	Y16	Z16	X17	Y17	Z17	X18	Y18	Z18	X19	Y19	Z19	X20	Y20	Z20	X21	Y21	Z21	X22	Y22	Z22	X23	Y23	Z23	X24	Y24	Z24	X25	Y25	Z25	X26	Y26	Z26	X27	Y27	Z27	X28	Y28	Z28	X29	Y29	Z29	X30	Y30	Z30	X31	Y31	Z31	X32	Y32	Z32	X33	Y33	Z33	X34	Y34	Z34	X35	Y35	Z35	X36	Y36	Z36	X37	Y37	Z37	X38	Y38	Z38	X39	Y39	Z39	X40	Y40	Z40	X41	Y41	Z41	X42	Y42	Z42	X43	Y43	Z43	X44	Y44	Z44	X45	Y45	Z45	X46	Y46	Z46	X47	Y47	Z47	X48	Y48	Z48	X49	Y49	Z49	X50	Y50	Z50	X51	Y51	Z51	X52	Y52	Z52	X53	Y53	Z53	

418	4.17	431.6946716308594	1110.137817382812	393.8187255859375	566.7732543945312	1123.655395507812	389.6435546875	499.5055236816406	1152.076049804688	383.1385803222656	503.4631042480469	1363.207275390625	591.8261108398438	492.0968933105469	1298.70849609375	341.2292175292969	501.2654113769531	1592.810791015625	354.3401794433594	504.2610168457031	1494.856201171875	545.3745727539062	414.2984619140625	1404.256958007812	315.5520935058594	603.2353515625	1573.7841796875	343.6358032226562	674.2188110351562	1566.958984375	427.7031555175781	752.297607421875	1440.3203125	413.6396179199219	796.7114868164062	1228.0166015625	449.0386047363281	737.2203369140625	1200.931274414062	388.7716979980469	785.8903198242188	990.49462890625	594.8518676757812	809.369140625	951.728759765625	517.6885986328125	813.4572143554688	1116.74951171875	483.1118469238281	787.9029541015625	805.1681518554688	647.5182495117188	819.880859375	885.009521484375	561.1759643554688	807.6146850585938	908.95556640625	625.3726196289062	324.1290893554688	1575.572265625	420.7548217773438	259.8545532226562	1501.410400390625	409.3866271972656	239.5702667236328	1207.837036132812	404.0798645019531	336.0453796386719	1206.308959960938	396.893310546875	255.5390014648438	966.5451049804688	551.7301635742188	221.0390930175781	949.4827270507812	477.0845642089844	223.2608947753906	1135.2626953125	428.8504028320312	274.0046691894531	771.7874755859375	574.2407836914062	250.6801910400391	857.7901000976562	580.3786010742188	218.8246917724609	849.3435668945312	514.0925903320312	423.3341064453125	1770.274291992188	398.438720703125	566.5341186523438	1839.03271484375	552.3089599609375	438.113037109375	1841.471313476562	562.4005737304688	558.5801391601562	1773.146606445312	380.6605224609375	684.0847778320312	1047.720458984375	482.2966918945312	326.8960571289062	1017.8408203125	535.5673217773438	377.8638916015625	1097.548095703125	604.7968139648438	642.8098754882812	1111.773681640625	590.4169311523438	661.3441772460938	545.25341796875	556.67333984375	687.41748046875	688.3540649414062	519.470458984375	642.4227905273438	35.50180816650391	512.089111328125	679.7611694335938	289.6770324707031	492.8094177246094	581.234375	36.76446151733398	745.0569458007812	550.7553100585938	44.40895080566406	661.3241577148438	667.75146484375	36.82204437255859	637.0564575195312	582.06494140625	35.67001724243164	442.9307861328125	380.9140625	528.1245727539062	618.5404663085938	351.80078125	807.963134765625	587.1005859375	285.1371154785156	216.9096527099609	195.8430786132812	345.3946838378906	432.0414123535156	523.0032348632812	376.1268920898438	34.3126220703125	307.6499328613281	405.3817138671875	86.11124420166016	262.29443359375	285.9697570800781	98.33574676513672	262.4651794433594	326.8446350097656	267.9035949707031	161.5509338378906	
419	4.18	433.187255859375	1109.932739257812	397.7666625976562	568.3099975585938	1123.685424804688	393.4908447265625	501.0538024902344	1152.328002929688	387.1457824707031	505.2605895996094	1363.143310546875	595.96435546875	494.3753356933594	1298.994262695312	344.6643371582031	503.6914367675781	1593.087890625	358.857177734375	506.1326293945312	1494.842529296875	549.697998046875	416.6654357910156	1404.572875976562	319.6485290527344	605.6226196289062	1574.021850585938	348.3895263671875	676.329345703125	1567.05859375	432.6433715820312	754.5160522460938	1440.533935546875	419.1908874511719	799.3162231445312	1228.529541015625	455.9643859863281	740.1377563476562	1200.89794921875	395.6236572265625	788.24560546875	992.42431640625	603.9689331054688	812.0759887695312	952.893310546875	527.2802734375	816.1007080078125	1117.582641601562	491.0763854980469	790.2979736328125	807.675537109375	658.5486450195312	822.52978515625	886.6514282226562	571.5083618164062	810.021484375	911.2640991210938	635.40478515625	326.2868957519531	1575.733642578125	424.8936157226562	262.1302795410156	1501.54345703125	413.2399597167969	242.2108612060547	1207.934204101562	407.2900390625	338.6754760742188	1206.504516601562	400.4567260742188	257.9261779785156	966.7822875976562	555.1636352539062	223.7593536376953	949.5818481445312	480.40869140625	225.8932647705078	1135.33203125	432.0147094726562	276.5580444335938	772.1031494140625	578.072021484375	253.1094665527344	858.0853881835938	583.9638061523438	221.5394592285156	849.4819946289062	517.5559692382812	425.6343688964844	1770.383544921875	403.2345581054688	568.6343994140625	1838.9404296875	557.3782958984375	440.2283020019531	1841.40625	567.2010498046875	561.021240234375	1773.271362304688	385.6408081054688	685.7879028320312	1047.717407226562	486.0836486816406	328.5370178222656	1017.898986816406	539.9779663085938	379.7575073242188	1097.532348632812	608.7471923828125	644.7217407226562	1111.73828125	594.2448120117188	662.1871948242188	545.0621948242188	558.7069091796875	688.55810546875	688.2877197265625	522.3099975585938	642.3538208007812	35.63991546630859	512.24267578125	680.2810668945312	289.6128845214844	493.9854736328125	581.27392578125	36.57581329345703	745.2477416992188	550.658447265625	44.29328155517578	661.3847045898438	667.640380859375	36.86826705932617	637.1117553710938	582.10986328125	35.85451507568359	443.0665893554688	384.3715515136719	529.1427612304688	627.3098754882812	354.1955871582031	808.326171875	593.0958251953125	289.8608093261719	217.5730895996094	204.7910003662109	349.1942138671875	433.1206665039062	531.7515258789062	376.8462524414062	35.69614410400391	321.3218994140625	407.1568603515625	86.10478210449219	275.2362365722656	288.0978088378906	100.4815063476562	274.0557861328125	332.7235717773438	267.2533569335938	169.8644561767578	
420	4.19	434.6159057617188	1109.725830078125	401.5933227539062	569.7511596679688	1123.69189453125	397.2165832519531	502.5231018066406	1152.514526367188	391.0083312988281	507.0078430175781	1363.05322265625	599.9518432617188	496.4776611328125	1299.266723632812	347.968994140625	506.0144653320312	1593.343994140625	363.240478515625	507.9449462890625	1494.809448242188	553.8800048828125	418.8836364746094	1404.879760742188	323.6529541015625	607.8837280273438	1574.227783203125	352.9667053222656	678.3540649414062	1567.1123046875	437.3720397949219	756.6234741210938	1440.693969726562	424.4937744140625	801.763671875	1228.986694335938	462.6608276367188	742.89111328125	1200.820678710938	402.2583312988281	790.3948364257812	994.3162841796875	612.8394165039062	814.5599975585938	954.0203857421875	536.6343383789062	818.5612182617188	1118.363891601562	498.80712890625	792.425048828125	810.1674194335938	669.3253173828125	824.9424438476562	888.258544921875	581.5947875976562	812.1935424804688	913.53955078125	645.1845703125	328.3574523925781	1575.894409179688	428.9733276367188	264.2906494140625	1501.692993164062	417.06884765625	244.7368927001953	1208.038208007812	410.5403747558594	341.1885375976562	1206.706420898438	403.977294921875	260.3432312011719	967.058837890625	558.6926879882812	226.4225769042969	949.7000732421875	483.8631286621094	228.4463653564453	1135.405395507812	435.2579650878906	279.1741638183594	772.463623046875	582.01513671875	255.5901947021484	858.4247436523438	587.6835327148438	224.252197265625	849.6618041992188	521.1768188476562	427.9125061035156	1770.477783203125	407.8994445800781	570.6734008789062	1838.82080078125	562.3404541015625	442.2920532226562	1841.276123046875	571.8955688476562	563.3854370117188	1773.354125976562	390.5188293457031	687.3886108398438	1047.65478515625	489.7434692382812	330.1069030761719	1017.921447753906	544.2183837890625	381.5817565917969	1097.500610351562	612.580078125	646.5542602539062	1111.691284179688	597.9219360351562	663.0350952148438	544.84716796875	560.591064453125	689.7506713867188	688.2242431640625	524.9925537109375	642.3139038085938	35.76340103149414	512.3943481445312	680.8197021484375	289.5533142089844	495.0565795898438	581.302490234375	36.40074920654297	745.4198608398438	550.5637817382812	44.18967056274414	661.4441528320312	667.543212890625	36.90871429443359	637.16845703125	582.1989135742188	36.09322357177734	443.1753845214844	387.7171936035156	530.1447143554688	635.7654418945312	356.4937133789062	808.6925048828125	598.9078369140625	294.6737060546875	217.3273010253906	214.0314483642578	352.95166015625	434.0189208984375	540.308349609375	378.2199096679688	36.99100494384766	335.3836364746094	409.4389953613281	85.91998291015625	288.4313354492188	290.7771911621094	102.002799987793	286.0575561523438	338.3173217773438	265.8503723144531	178.3324584960938	
421	4.2	435.9973754882812	1109.518188476562	405.302001953125	571.1146850585938	1123.682495117188	400.8286437988281	503.93408203125	1152.630981445312	394.7253723144531	508.7113342285156	1362.941528320312	603.80126953125	498.4039611816406	1299.519409179688	351.194580078125	508.2300415039062	1593.56982421875	367.4913940429688	509.7040405273438	1494.758056640625	557.9288330078125	420.9568481445312	1405.169555664062	327.5691223144531	610.0231323242188	1574.393310546875	357.3652038574219	680.2962646484375	1567.11669921875	441.8854370117188	758.625	1440.793823242188	429.5417785644531	804.0579833984375	1229.382568359375	469.1264038085938	745.4859008789062	1200.695068359375	408.6715698242188	792.3388061523438	996.1621704101562	621.4537963867188	816.8269653320312	955.1040649414062	545.744140625	820.8432006835938	1119.088500976562	506.3018493652344	794.307373046875	812.6348266601562	679.8322143554688	827.1223754882812	889.8240356445312	591.4243774414062	814.1286010742188	915.7708740234375	654.700927734375	330.3454895019531	1576.056030273438	432.9885864257812	266.3431701660156	1501.857421875	420.8694763183594	247.1474761962891	1208.148681640625	413.8258666992188	343.5885620117188	1206.916015625	407.4620361328125	262.7645568847656	967.3710327148438	562.3081665039062	229.0200653076172	949.8357543945312	487.437744140625	230.9137725830078	1135.480102539062	438.5731506347656	281.8486022949219	772.8672485351562	586.0655517578125	258.1055908203125	858.8056640625	591.5279541015625	226.9570617675781	849.8695068359375	524.9404296875	430.1746520996094	1770.570190429688	412.4216918945312	572.6514892578125	1838.66845703125	567.1963500976562	444.3016662597656	1841.077392578125	576.4859619140625	565.67333984375	1773.404174804688	395.2893981933594	688.8876953125	1047.526733398438	493.2973937988281	331.6175231933594	1017.909057617188	548.2899169921875	383.33544921875	1097.451171875	616.2949829101562	648.3070068359375	1111.628051757812	601.4652099609375	663.8868408203125	544.6098022460938	562.3223266601562	690.9739379882812	688.1530151367188	527.49951171875	642.3001708984375	35.87457656860352	512.5415649414062	681.3718872070312	289.5035705566406	496.0189514160156	581.3226928710938	36.24030685424805	745.5715942382812	550.4739990234375	44.10048294067383	661.5032958984375	667.4600830078125	36.94409942626953	637.224853515625	582.33740234375	36.39688873291016	443.2371826171875	390.94970703125	531.118408203125	643.896484375	358.6878967285156	809.0533447265625	604.5061645507812	299.525390625	216.1927032470703	223.5671539306641	356.6724243164062	434.7046203613281	548.6771850585938	380.318359375	38.1241340637207	349.6986389160156	412.3029479980469	85.50144195556641	301.7498168945312	294.0266723632812	102.8506622314453	298.3829956054688	343.5836486816406	263.7255554199219	186.9616546630859	
